<?xml version="1.0" standalone="no"?>
<!DOCTYPE svg PUBLIC "-//W3C//DTD SVG 20010904//EN"
 "http://www.w3.org/TR/2001/REC-SVG-20010904/DTD/svg10.dtd">
<svg version="1.0" xmlns="http://www.w3.org/2000/svg"
 width="32.000000pt" height="32.000000pt" viewBox="0 0 32.000000 32.000000"
 preserveAspectRatio="xMidYMid meet">

<g transform="translate(0.000000,32.000000) scale(0.100000,-0.100000)"
fill="#000000" stroke="none">
<path d="M52 258 c-44 -48 -22 -106 70 -187 l38 -33 32 27 c94 78 121 150 74
194 -20 19 -32 22 -58 17 -40 -8 -53 -8 -98 0 -29 5 -39 1 -58 -18z m90 -25
c17 -15 19 -15 36 0 26 24 69 22 82 -3 8 -15 7 -29 -6 -55 -16 -35 -76 -95
-94 -95 -18 0 -78 60 -94 95 -13 26 -14 40 -6 55 13 25 56 27 82 3z"/>
</g>
</svg>
