<?xml version="1.0" standalone="no"?>
<!DOCTYPE svg PUBLIC "-//W3C//DTD SVG 20010904//EN"
 "http://www.w3.org/TR/2001/REC-SVG-20010904/DTD/svg10.dtd">
<svg version="1.0" xmlns="http://www.w3.org/2000/svg"
 width="32.000000pt" height="32.000000pt" viewBox="0 0 32.000000 32.000000"
 preserveAspectRatio="xMidYMid meet">

<g transform="translate(0.000000,32.000000) scale(0.100000,-0.100000)"
fill="#000000" stroke="none">
<path d="M20 270 c0 -5 6 -10 14 -10 13 0 36 -74 36 -115 0 -8 9 -24 20 -35
16 -16 33 -20 90 -20 84 0 104 15 114 85 4 26 10 54 13 61 4 11 -17 14 -115
14 -97 0 -121 3 -126 15 -6 17 -46 21 -46 5z m255 -87 c-10 -67 -17 -73 -95
-73 -78 0 -85 6 -95 73 l-7 47 102 0 102 0 -7 -47z"/>
<path d="M115 70 c-8 -14 3 -30 21 -30 8 0 14 9 14 20 0 21 -24 28 -35 10z"/>
<path d="M210 60 c0 -15 5 -20 18 -18 22 4 22 32 0 36 -13 2 -18 -3 -18 -18z"/>
</g>
</svg>
